PathFileType	4	(X/Y/Z)	TVC_32_BWA_08_walk_RCNL2025.trc
DataRate	CameraRate	NumFrames	NumMarkers	Units	OrigDataRate	OrigDataStartFrame	OrigNumFrames
100	100	10	27	mm	100	219	436
Frame#	Time	R_Shoulder			L_Shoulder			C7			J_Notch			R_Elbow			L_Elbow			R_Wrist			L_Wrist			R_Asis			L_Asis			R_Psis			L_Psis			Sacral			Thoracic			Sternum			R_Thigh_Lateral			R_Knee_Lateral			R_Shank_Lateral			R_Ankle_Lateral			R_Heel			R_Toe			L_Thigh_Lateral			L_Knee_Lateral			L_Shank_Lateral			L_Ankle_Lateral			L_Heel			L_Toe		
		X1	Y1	Z1	X2	Y2	Z2	X3	Y3	Z3	X4	Y4	Z4	X5	Y5	Z5	X6	Y6	Z6	X7	Y7	Z7	X8	Y8	Z8	X9	Y9	Z9	X10	Y10	Z10	X11	Y11	Z11	X12	Y12	Z12	X13	Y13	Z13	X14	Y14	Z14	X15	Y15	Z15	X16	Y16	Z16	X17	Y17	Z17	X18	Y18	Z18	X19	Y19	Z19	X20	Y20	Z20	X21	Y21	Z21	X22	Y22	Z22	X23	Y23	Z23	X24	Y24	Z24	X25	Y25	Z25	X26	Y26	Z26	X27	Y27	Z27
219	2.18000000	-402.484222	1472.138306	447.091003	-444.868591	1439.365967	71.264473	-484.186859	1512.013794	263.404999	-321.487579	1414.674561	262.221954	-364.686432	1139.206055	596.162842	-503.150391	1107.087402	-11.730484	-239.442238	896.970428	553.043060	-440.420624	841.293182	22.123580	-391.319092	1009.389893	429.054871	-385.098511	1014.846558	146.201691	-580.789551	1025.532959	337.937378	-576.075439	1023.759399	235.685333	-578.432495	1024.646179	286.811356	-558.258789	1253.178101	282.648102	-299.247314	1269.384521	268.765533	-450.874878	632.164612	530.696167	-402.432556	494.929504	493.770813	-582.492981	380.132843	511.518707	-721.969788	231.699341	411.243500	-758.146423	264.854950	339.367920	-690.752258	79.920685	401.581573	-431.699127	664.249390	94.738930	-398.954315	503.813934	166.329727	-407.831268	340.443359	108.118134	-343.971649	72.650169	183.955200	-412.158661	57.473022	232.277756	-201.958115	41.672005	215.276199
220	2.19000000	-395.152527	1472.061646	446.047852	-436.604156	1439.485840	69.723129	-476.565216	1512.445557	261.942322	-314.047363	1414.792969	261.120239	-361.930756	1138.614136	595.262207	-489.031647	1106.535156	-15.081524	-240.279602	894.496246	552.542236	-422.524475	841.547821	17.946535	-384.625092	1009.536926	427.999237	-378.835480	1014.990601	145.046371	-574.194397	1025.808716	337.058228	-569.983948	1024.423340	234.906570	-572.089172	1025.116028	285.982399	-551.176025	1253.837769	281.427795	-292.109558	1269.453125	267.503021	-436.269989	633.040039	530.874756	-384.327454	497.169769	494.489502	-564.200378	382.684967	511.414948	-703.814087	235.186157	410.437988	-740.150696	268.130249	338.510406	-671.877869	83.691681	402.291199	-428.090973	664.746643	93.963158	-396.367981	503.941498	165.778748	-406.303680	340.633820	107.792206	-343.888641	72.658134	184.071716	-412.183258	57.547855	232.317261	-201.990707	41.609398	215.313004
221	2.20000000	-387.965179	1472.002197	445.102173	-428.508636	1439.584473	68.297546	-469.046478	1512.866699	260.568390	-306.715759	1414.899536	260.113281	-359.296478	1138.074951	594.377686	-474.926544	1106.070557	-18.274981	-241.296989	892.109528	552.012512	-404.490372	841.983948	13.777562	-378.008026	1009.660889	427.017181	-372.703064	1015.171997	143.944000	-567.663025	1026.090332	336.291718	-563.920105	1025.076172	234.228180	-565.791565	1025.583252	285.259949	-544.175842	1254.476562	280.336060	-285.069275	1269.514771	266.347626	-421.903839	634.069092	530.790710	-366.462555	499.595367	494.875580	-545.743347	384.801880	511.174561	-685.042297	237.673996	409.653961	-721.933044	270.166199	337.771362	-651.256653	86.972115	402.795410	-424.510406	665.250610	93.214996	-393.757202	504.092834	165.235596	-404.775879	340.851898	107.464394	-343.824158	72.661156	184.155045	-412.216095	57.627789	232.330704	-202.036194	41.551052	215.333710
222	2.21000000	-380.911072	1471.980713	444.244781	-420.570343	1439.685913	66.987091	-461.625885	1513.286255	259.281158	-299.485413	1415.006226	259.199066	-356.781830	1137.609375	593.512939	-460.869293	1105.722534	-21.298159	-242.481895	889.836914	551.449738	-386.350327	842.643036	9.634305	-371.442474	1009.790833	426.087891	-366.698029	1015.412720	142.879120	-561.178345	1026.396729	335.642242	-557.870483	1025.723877	233.650513	-559.524414	1026.060303	284.646378	-537.251343	1255.101685	279.370148	-278.117828	1269.581543	265.296936	-407.768768	635.247070	530.465820	-348.876801	502.188934	494.942047	-527.141174	386.437042	510.816925	-665.674377	239.106140	408.904694	-703.479492	270.936432	337.155853	-629.025085	89.652840	403.047577	-420.906586	665.761963	92.499336	-391.093262	504.272491	164.704590	-403.225861	341.097443	107.137405	-343.775848	72.661217	184.211197	-412.253479	57.713177	232.324448	-202.092224	41.498569	215.344254
223	2.22000000	-373.978821	1472.010010	443.467041	-412.775330	1439.809204	65.789452	-454.298767	1513.708984	258.078644	-292.348663	1415.120850	258.375305	-354.382202	1137.232056	592.673889	-446.896881	1105.513062	-24.143314	-243.818878	887.700226	550.848969	-368.137283	843.560852	5.536093	-364.904083	1009.948914	425.193146	-360.811127	1015.723999	141.840179	-554.724182	1026.739380	335.109436	-551.827454	1026.368042	233.171204	-553.275818	1026.553711	284.140320	-530.395447	1255.716675	278.523682	-271.246521	1269.661499	264.346832	-393.856537	636.560486	529.925476	-331.605560	504.927124	494.703796	-508.404907	387.549438	510.360931	-645.727966	239.448242	408.197998	-684.759705	270.431274	336.660400	-605.339478	91.652039	403.019012	-417.237793	666.277100	91.821960	-388.355774	504.480377	164.191498	-401.635925	341.367615	106.814995	-343.740265	72.659927	184.247269	-412.291290	57.804443	232.305359	-202.155731	41.452026	215.350128
224	2.23000000	-367.157227	1472.095215	442.761383	-405.107910	1439.967407	64.700806	-447.060303	1514.135010	256.958893	-285.297424	1415.247437	257.639557	-352.090149	1136.951416	591.868347	-433.047272	1105.456421	-26.807837	-245.289772	885.716217	550.205261	-349.884720	844.765930	1.503515	-358.370850	1010.148926	424.318817	-355.027191	1016.106445	140.820206	-548.286255	1027.122192	334.688843	-545.786804	1027.006104	232.785263	-547.036530	1027.064148	283.737053	-523.600952	1256.320679	277.787659	-264.446381	1269.758057	263.491974	-380.161957	637.988159	529.196167	-314.681549	507.780792	494.176575	-489.540955	388.106750	509.823212	-625.218506	238.689178	407.536285	-665.730347	268.656677	336.273743	-580.364929	92.918671	402.702148	-413.473419	666.789490	91.188591	-385.533264	504.712402	163.702652	-399.992981	341.658051	106.501183	-343.713531	72.658478	184.270599	-412.325470	57.902039	232.280029	-202.223358	41.410435	215.356186
225	2.24000000	-360.435699	1472.234375	442.121765	-397.551208	1440.167847	63.715965	-439.905212	1514.560669	255.919937	-278.323212	1415.385986	256.989380	-349.895630	1136.769775	591.104980	-419.357330	1105.558716	-29.294107	-246.874207	883.896027	549.514038	-331.626160	846.278564	-2.442122	-351.824036	1010.395569	423.455536	-349.326172	1016.551575	139.817032	-541.852234	1027.541992	334.372345	-539.745667	1027.632324	232.485535	-540.798950	1027.587158	283.428940	-516.860168	1256.910034	277.151245	-257.707977	1269.871460	262.726135	-366.684845	639.502197	528.303650	-298.135406	510.715759	493.376251	-470.554962	388.088257	509.216797	-604.159607	236.840744	406.917267	-646.339050	265.633331	335.978333	-554.265198	93.433578	402.111450	-409.594604	667.291077	90.604057	-382.622894	504.961670	163.244095	-398.288208	341.963562	106.199554	-343.691864	72.657608	184.288223	-412.352417	58.006344	232.254074	-202.291901	41.372219	215.366333
226	2.25000000	-353.804321	1472.419434	441.543671	-390.087860	1440.411621	62.828724	-432.827393	1514.978882	254.959717	-271.416962	1415.533447	256.422363	-347.786469	1136.683838	590.392578	-405.860901	1105.818237	-31.608997	-248.550293	882.245209	548.771545	-313.395004	848.110107	-6.279365	-345.249054	1010.684509	422.599060	-343.684479	1017.043396	138.832993	-535.412415	1027.989258	334.149445	-533.701294	1028.239136	232.263412	-534.556854	1028.114197	283.206429	-510.165009	1257.478027	276.602814	-251.021271	1269.998535	262.042572	-353.431061	641.069641	527.271606	-281.996307	513.693298	492.318481	-451.455688	387.486877	508.550568	-582.563354	233.936401	406.335205	-626.528687	261.395813	335.752289	-527.194763	93.208565	401.281921	-405.593475	667.773621	90.071617	-379.629333	505.219635	162.820755	-396.516724	342.278992	105.912720	-343.671967	72.657623	184.306229	-412.369385	58.117584	232.231812	-202.358490	41.335659	215.383316
227	2.26000000	-347.253937	1472.637695	441.024139	-382.700439	1440.694580	62.032150	-425.819916	1515.380615	254.075974	-264.569061	1415.684692	255.935989	-345.749390	1136.685181	589.739014	-392.586792	1106.225952	-33.763096	-250.295479	880.763977	547.975250	-295.224060	850.262909	-9.987238	-338.635651	1011.003479	421.749878	-338.076630	1017.561279	137.874161	-528.959656	1028.449951	334.008209	-527.650452	1028.816895	232.109695	-528.305054	1028.633423	283.058952	-503.506714	1258.016235	276.130859	-244.375702	1270.133179	261.434540	-340.412323	642.653809	526.121277	-266.292206	516.670898	491.018219	-432.257721	386.310059	507.829163	-560.439819	230.029266	405.782318	-606.240662	255.992157	335.572021	-499.293060	92.283730	400.265503	-401.471710	668.229858	89.592575	-376.563263	505.477203	162.436050	-394.677094	342.599854	105.642097	-343.651306	72.658493	184.329346	-412.374420	58.235764	232.216064	-202.420822	41.299240	215.408722
228	2.27000000	-340.776031	1472.873291	440.561584	-375.372101	1441.008423	61.319027	-418.874908	1515.755615	253.266296	-257.769379	1415.832397	255.527740	-343.770660	1136.762207	589.150391	-379.557343	1106.767212	-35.769688	-252.087372	879.447540	547.124237	-277.145233	852.730713	-13.545775	-331.977875	1011.333923	420.912689	-332.477112	1018.082153	136.949295	-522.488953	1028.906616	333.936310	-521.589050	1029.356323	232.015533	-522.039001	1029.131470	282.975922	-496.876038	1258.515259	275.724854	-237.760162	1270.268066	260.895721	-327.645294	644.216125	524.871033	-251.050247	519.602905	489.489960	-412.983612	384.579376	507.053772	-537.797485	225.189499	405.250702	-585.419067	249.483475	335.414795	-470.681396	90.723763	399.125946	-397.238037	668.653931	89.166222	-373.439331	505.725708	162.091492	-392.771179	342.922455	105.387856	-343.628326	72.659950	184.360886	-412.366547	58.360569	232.208221	-202.477112	41.261887	215.442947
